<svg width="429" height="70" viewBox="0 0 429 70" fill="none" xmlns="http://www.w3.org/2000/svg">
<path d="M-8.38919 69.4035C14.0332 69.4035 27.4867 58.7404 27.4867 40.9021V39.208H6.55909V40.9021C6.55909 48.4759 2.9715 51.4656 -8.09022 51.4656C-21.6433 51.4656 -25.3306 48.2766 -25.3306 35.0225C-25.3306 21.7683 -21.6433 18.5794 -8.09022 18.5794C2.9715 18.5794 6.55909 21.569 6.55909 29.1428V30.8369H27.4867V29.1428C27.4867 11.3045 14.0332 0.641422 -8.38919 0.641422C-31.6088 0.641422 -45.2616 14.1945 -45.2616 35.0225C-45.2616 55.8504 -31.6088 69.4035 -8.38919 69.4035ZM51.1579 68.407V42.4966C51.1579 36.019 53.2507 33.9263 61.9207 33.9263C70.491 33.9263 73.1817 36.1187 73.1817 43.0945V68.407H91.9169V36.8163C91.9169 25.6549 85.5389 17.1842 72.1851 17.1842C59.3296 17.1842 53.7489 24.9573 52.1545 33.428H51.1579V1.63797H32.4227V68.407H51.1579ZM113.773 69.4035C124.636 69.4035 130.814 64.919 132.708 57.8435H133.704V68.407H151.244V39.8059C151.244 25.7545 142.773 17.1842 125.234 17.1842C108.193 17.1842 97.0312 25.7545 97.0312 39.1083V39.3076H115.766V38.909C115.766 34.7235 117.66 33.5276 123.838 33.5276C130.515 33.5276 132.708 34.3249 132.708 39.4073V40.4038L112.278 42.3969C100.918 43.4932 96.0347 48.5756 96.0347 55.6511C96.0347 64.2214 102.413 69.4035 113.773 69.4035ZM114.869 54.4552C114.869 53.359 115.567 52.7611 117.261 52.5618L132.608 50.768C132.11 55.2525 128.423 56.3487 119.354 56.3487C116.464 56.3487 114.869 56.0497 114.869 54.4552ZM175.532 68.407V38.4107C175.532 34.4245 177.027 32.9297 182.109 32.9297C186.993 32.9297 188.587 34.4245 188.587 38.61V44.4897H207.322V34.5242C207.322 24.459 202.937 17.1842 191.876 17.1842C181.91 17.1842 176.728 23.0638 175.333 31.3352H174.336V18.1807H156.797V68.407H175.532ZM230.031 13.5966V1.63797H211.296V13.5966H230.031ZM230.031 68.407V18.1807H211.296V68.407H230.031ZM289.131 68.407V52.0635H267.905L258.139 53.0601V51.7645L267.905 46.7818L287.637 34.1256V18.1807H236.015V34.5242H252.658L263.121 33.7269V35.0225L252.658 40.3042L234.52 52.4621V68.407H289.131ZM309.872 69.4035C320.735 69.4035 326.913 64.919 328.807 57.8435H329.803V68.407H347.342V39.8059C347.342 25.7545 338.872 17.1842 321.332 17.1842C304.291 17.1842 293.13 25.7545 293.13 39.1083V39.3076H311.865V38.909C311.865 34.7235 313.759 33.5276 319.937 33.5276C326.614 33.5276 328.807 34.3249 328.807 39.4073V40.4038L308.377 42.3969C297.017 43.4932 292.133 48.5756 292.133 55.6511C292.133 64.2214 298.511 69.4035 309.872 69.4035ZM310.968 54.4552C310.968 53.359 311.666 52.7611 313.36 52.5618L328.707 50.768C328.209 55.2525 324.521 56.3487 315.453 56.3487C312.563 56.3487 310.968 56.0497 310.968 54.4552ZM371.631 68.407V38.4107C371.631 34.4245 373.126 32.9297 378.208 32.9297C383.091 32.9297 384.686 34.4245 384.686 38.61V44.4897H403.421V34.5242C403.421 24.459 399.036 17.1842 387.975 17.1842C378.009 17.1842 372.827 23.0638 371.432 31.3352H370.435V18.1807H352.896V68.407H371.631ZM430.216 69.4035C441.975 69.4035 447.955 64.8194 449.549 54.8538H450.546V68.407H468.085V1.63797H449.35V31.1359H448.353C446.858 22.7649 441.278 17.1842 429.419 17.1842C414.67 17.1842 406.398 26.9504 406.398 43.2938C406.398 59.5376 414.869 69.4035 430.216 69.4035ZM425.333 43.2938C425.333 36.6169 428.322 34.2252 436.992 34.2252C445.363 34.2252 449.35 35.6204 449.35 42.6959V43.3935C449.35 50.6683 445.363 52.2628 436.992 52.2628C428.322 52.2628 425.333 49.9707 425.333 43.2938Z" fill="#1B1B1B"/>
</svg>
