<svg width="358" height="218" viewBox="0 0 358 218" fill="none" xmlns="http://www.w3.org/2000/svg">
<g filter="url(#filter0_d_1_353)">
<path d="M39.6131 95.6833C40.3648 93.3033 42.5726 91.6853 45.0685 91.6853H48.6876C52.5545 91.6853 55.3075 95.4419 54.1429 99.1292L46.9155 122.013C46.1638 124.393 43.956 126.011 41.4602 126.011H37.841C33.9742 126.011 31.2211 122.254 32.3857 118.567L39.6131 95.6833Z" fill="white" fill-opacity="0.07"/>
<path d="M39.6131 95.6833C40.3648 93.3033 42.5726 91.6853 45.0685 91.6853H48.6876C52.5545 91.6853 55.3075 95.4419 54.1429 99.1292L46.9155 122.013C46.1638 124.393 43.956 126.011 41.4602 126.011H37.841C33.9742 126.011 31.2211 122.254 32.3857 118.567L39.6131 95.6833Z" fill="url(#paint0_linear_1_353)"/>
</g>
<g filter="url(#filter1_d_1_353)">
<path d="M61.0663 95.6833C61.8179 93.3033 64.0257 91.6853 66.5216 91.6853H70.1408C74.0076 91.6853 76.7606 95.4419 75.5961 99.1292L68.3686 122.013C67.6169 124.393 65.4092 126.011 62.9133 126.011H59.2941C55.4273 126.011 52.6743 122.254 53.8388 118.567L61.0663 95.6833Z" fill="white" fill-opacity="0.07"/>
<path d="M61.0663 95.6833C61.8179 93.3033 64.0257 91.6853 66.5216 91.6853H70.1408C74.0076 91.6853 76.7606 95.4419 75.5961 99.1292L68.3686 122.013C67.6169 124.393 65.4092 126.011 62.9133 126.011H59.2941C55.4273 126.011 52.6743 122.254 53.8388 118.567L61.0663 95.6833Z" fill="url(#paint1_linear_1_353)"/>
</g>
<g filter="url(#filter2_d_1_353)">
<path d="M82.5196 95.6833C83.2713 93.3033 85.4791 91.6853 87.9749 91.6853H91.5941C95.461 91.6853 98.214 95.4419 97.0494 99.1292L89.822 122.013C89.0703 124.393 86.8625 126.011 84.3667 126.011H80.7475C76.8807 126.011 74.1276 122.254 75.2922 118.567L82.5196 95.6833Z" fill="white" fill-opacity="0.07"/>
<path d="M82.5196 95.6833C83.2713 93.3033 85.4791 91.6853 87.9749 91.6853H91.5941C95.461 91.6853 98.214 95.4419 97.0494 99.1292L89.822 122.013C89.0703 124.393 86.8625 126.011 84.3667 126.011H80.7475C76.8807 126.011 74.1276 122.254 75.2922 118.567L82.5196 95.6833Z" fill="url(#paint2_linear_1_353)"/>
</g>
<g filter="url(#filter3_d_1_353)">
<path d="M103.973 95.6833C104.725 93.3033 106.933 91.6853 109.429 91.6853H113.048C116.915 91.6853 119.668 95.4419 118.503 99.1292L111.276 122.013C110.524 124.393 108.316 126.011 105.82 126.011H102.201C98.3343 126.011 95.5812 122.254 96.7458 118.567L103.973 95.6833Z" fill="white" fill-opacity="0.07"/>
<path d="M103.973 95.6833C104.725 93.3033 106.933 91.6853 109.429 91.6853H113.048C116.915 91.6853 119.668 95.4419 118.503 99.1292L111.276 122.013C110.524 124.393 108.316 126.011 105.82 126.011H102.201C98.3343 126.011 95.5812 122.254 96.7458 118.567L103.973 95.6833Z" fill="url(#paint3_linear_1_353)"/>
</g>
<g filter="url(#filter4_d_1_353)">
<path d="M125.427 95.6833C126.179 93.3033 128.387 91.6853 130.883 91.6853H134.502C138.369 91.6853 141.122 95.4419 139.957 99.1292L132.73 122.013C131.978 124.393 129.77 126.011 127.274 126.011H123.655C119.788 126.011 117.035 122.254 118.2 118.567L125.427 95.6833Z" fill="white" fill-opacity="0.17"/>
<path d="M125.427 95.6833C126.179 93.3033 128.387 91.6853 130.883 91.6853H134.502C138.369 91.6853 141.122 95.4419 139.957 99.1292L132.73 122.013C131.978 124.393 129.77 126.011 127.274 126.011H123.655C119.788 126.011 117.035 122.254 118.2 118.567L125.427 95.6833Z" fill="url(#paint4_linear_1_353)" fill-opacity="0.4"/>
</g>
<g filter="url(#filter5_d_1_353)">
<path d="M146.88 95.6833C147.632 93.3033 149.84 91.6853 152.336 91.6853H155.955C159.822 91.6853 162.575 95.4419 161.41 99.1292L154.183 122.013C153.431 124.393 151.223 126.011 148.727 126.011H145.108C141.241 126.011 138.488 122.254 139.653 118.567L146.88 95.6833Z" fill="white" fill-opacity="0.17"/>
<path d="M146.88 95.6833C147.632 93.3033 149.84 91.6853 152.336 91.6853H155.955C159.822 91.6853 162.575 95.4419 161.41 99.1292L154.183 122.013C153.431 124.393 151.223 126.011 148.727 126.011H145.108C141.241 126.011 138.488 122.254 139.653 118.567L146.88 95.6833Z" fill="url(#paint5_linear_1_353)" fill-opacity="0.4"/>
</g>
<g filter="url(#filter6_d_1_353)">
<path d="M168.334 95.6833C169.086 93.3033 171.293 91.6853 173.789 91.6853H177.408C181.275 91.6853 184.028 95.4419 182.864 99.1292L175.636 122.013C174.885 124.393 172.677 126.011 170.181 126.011H166.562C162.695 126.011 159.942 122.254 161.106 118.567L168.334 95.6833Z" fill="white" fill-opacity="0.17"/>
<path d="M168.334 95.6833C169.086 93.3033 171.293 91.6853 173.789 91.6853H177.408C181.275 91.6853 184.028 95.4419 182.864 99.1292L175.636 122.013C174.885 124.393 172.677 126.011 170.181 126.011H166.562C162.695 126.011 159.942 122.254 161.106 118.567L168.334 95.6833Z" fill="url(#paint6_linear_1_353)" fill-opacity="0.4"/>
</g>
<g filter="url(#filter7_d_1_353)">
<path d="M189.787 95.6833C190.539 93.3033 192.747 91.6853 195.243 91.6853H198.862C202.729 91.6853 205.482 95.4419 204.317 99.1292L197.09 122.013C196.338 124.393 194.13 126.011 191.634 126.011H188.015C184.148 126.011 181.395 122.254 182.56 118.567L189.787 95.6833Z" fill="white" fill-opacity="0.17"/>
<path d="M189.787 95.6833C190.539 93.3033 192.747 91.6853 195.243 91.6853H198.862C202.729 91.6853 205.482 95.4419 204.317 99.1292L197.09 122.013C196.338 124.393 194.13 126.011 191.634 126.011H188.015C184.148 126.011 181.395 122.254 182.56 118.567L189.787 95.6833Z" fill="url(#paint7_linear_1_353)" fill-opacity="0.4"/>
</g>
<g filter="url(#filter8_d_1_353)">
<path d="M211.241 95.6833C211.993 93.3033 214.2 91.6853 216.696 91.6853H220.315C224.182 91.6853 226.935 95.4419 225.771 99.1292L218.543 122.013C217.792 124.393 215.584 126.011 213.088 126.011H209.469C205.602 126.011 202.849 122.254 204.013 118.567L211.241 95.6833Z" fill="white" fill-opacity="0.17"/>
<path d="M211.241 95.6833C211.993 93.3033 214.2 91.6853 216.696 91.6853H220.315C224.182 91.6853 226.935 95.4419 225.771 99.1292L218.543 122.013C217.792 124.393 215.584 126.011 213.088 126.011H209.469C205.602 126.011 202.849 122.254 204.013 118.567L211.241 95.6833Z" fill="url(#paint8_linear_1_353)" fill-opacity="0.4"/>
</g>
<g filter="url(#filter9_d_1_353)">
<path d="M232.694 95.6833C233.446 93.3033 235.654 91.6853 238.15 91.6853H241.769C245.636 91.6853 248.389 95.4419 247.224 99.1292L239.997 122.013C239.245 124.393 237.037 126.011 234.541 126.011H230.922C227.055 126.011 224.302 122.254 225.467 118.567L232.694 95.6833Z" fill="white" fill-opacity="0.17"/>
<path d="M232.694 95.6833C233.446 93.3033 235.654 91.6853 238.15 91.6853H241.769C245.636 91.6853 248.389 95.4419 247.224 99.1292L239.997 122.013C239.245 124.393 237.037 126.011 234.541 126.011H230.922C227.055 126.011 224.302 122.254 225.467 118.567L232.694 95.6833Z" fill="url(#paint9_linear_1_353)" fill-opacity="0.4"/>
</g>
<defs>
<filter id="filter0_d_1_353" x="-59.4189" y="0.150414" width="205.366" height="217.395" filterUnits="userSpaceOnUse" color-interpolation-filters="sRGB">
<feFlood flood-opacity="0" result="BackgroundImageFix"/>
<feColorMatrix in="SourceAlpha" type="matrix" values="0 0 0 0 0 0 0 0 0 0 0 0 0 0 0 0 0 0 127 0" result="hardAlpha"/>
<feOffset/>
<feGaussianBlur stdDeviation="45.7674"/>
<feColorMatrix type="matrix" values="0 0 0 0 1 0 0 0 0 0.359756 0 0 0 0 0 0 0 0 0.4 0"/>
<feBlend mode="normal" in2="BackgroundImageFix" result="effect1_dropShadow_1_353"/>
<feBlend mode="normal" in="SourceGraphic" in2="effect1_dropShadow_1_353" result="shape"/>
</filter>
<filter id="filter1_d_1_353" x="-37.9658" y="0.150414" width="205.366" height="217.395" filterUnits="userSpaceOnUse" color-interpolation-filters="sRGB">
<feFlood flood-opacity="0" result="BackgroundImageFix"/>
<feColorMatrix in="SourceAlpha" type="matrix" values="0 0 0 0 0 0 0 0 0 0 0 0 0 0 0 0 0 0 127 0" result="hardAlpha"/>
<feOffset/>
<feGaussianBlur stdDeviation="45.7674"/>
<feColorMatrix type="matrix" values="0 0 0 0 1 0 0 0 0 0.359756 0 0 0 0 0 0 0 0 0.4 0"/>
<feBlend mode="normal" in2="BackgroundImageFix" result="effect1_dropShadow_1_353"/>
<feBlend mode="normal" in="SourceGraphic" in2="effect1_dropShadow_1_353" result="shape"/>
</filter>
<filter id="filter2_d_1_353" x="-16.5124" y="0.150414" width="205.366" height="217.395" filterUnits="userSpaceOnUse" color-interpolation-filters="sRGB">
<feFlood flood-opacity="0" result="BackgroundImageFix"/>
<feColorMatrix in="SourceAlpha" type="matrix" values="0 0 0 0 0 0 0 0 0 0 0 0 0 0 0 0 0 0 127 0" result="hardAlpha"/>
<feOffset/>
<feGaussianBlur stdDeviation="45.7674"/>
<feColorMatrix type="matrix" values="0 0 0 0 1 0 0 0 0 0.359756 0 0 0 0 0 0 0 0 0.4 0"/>
<feBlend mode="normal" in2="BackgroundImageFix" result="effect1_dropShadow_1_353"/>
<feBlend mode="normal" in="SourceGraphic" in2="effect1_dropShadow_1_353" result="shape"/>
</filter>
<filter id="filter3_d_1_353" x="4.94118" y="0.150414" width="205.366" height="217.395" filterUnits="userSpaceOnUse" color-interpolation-filters="sRGB">
<feFlood flood-opacity="0" result="BackgroundImageFix"/>
<feColorMatrix in="SourceAlpha" type="matrix" values="0 0 0 0 0 0 0 0 0 0 0 0 0 0 0 0 0 0 127 0" result="hardAlpha"/>
<feOffset/>
<feGaussianBlur stdDeviation="45.7674"/>
<feColorMatrix type="matrix" values="0 0 0 0 1 0 0 0 0 0.359756 0 0 0 0 0 0 0 0 0.4 0"/>
<feBlend mode="normal" in2="BackgroundImageFix" result="effect1_dropShadow_1_353"/>
<feBlend mode="normal" in="SourceGraphic" in2="effect1_dropShadow_1_353" result="shape"/>
</filter>
<filter id="filter4_d_1_353" x="26.3953" y="0.150414" width="205.366" height="217.395" filterUnits="userSpaceOnUse" color-interpolation-filters="sRGB">
<feFlood flood-opacity="0" result="BackgroundImageFix"/>
<feColorMatrix in="SourceAlpha" type="matrix" values="0 0 0 0 0 0 0 0 0 0 0 0 0 0 0 0 0 0 127 0" result="hardAlpha"/>
<feOffset/>
<feGaussianBlur stdDeviation="45.7674"/>
<feColorMatrix type="matrix" values="0 0 0 0 1 0 0 0 0 0.359756 0 0 0 0 0 0 0 0 0.4 0"/>
<feBlend mode="normal" in2="BackgroundImageFix" result="effect1_dropShadow_1_353"/>
<feBlend mode="normal" in="SourceGraphic" in2="effect1_dropShadow_1_353" result="shape"/>
</filter>
<filter id="filter5_d_1_353" x="47.8482" y="0.150414" width="205.366" height="217.395" filterUnits="userSpaceOnUse" color-interpolation-filters="sRGB">
<feFlood flood-opacity="0" result="BackgroundImageFix"/>
<feColorMatrix in="SourceAlpha" type="matrix" values="0 0 0 0 0 0 0 0 0 0 0 0 0 0 0 0 0 0 127 0" result="hardAlpha"/>
<feOffset/>
<feGaussianBlur stdDeviation="45.7674"/>
<feColorMatrix type="matrix" values="0 0 0 0 1 0 0 0 0 0.359756 0 0 0 0 0 0 0 0 0.4 0"/>
<feBlend mode="normal" in2="BackgroundImageFix" result="effect1_dropShadow_1_353"/>
<feBlend mode="normal" in="SourceGraphic" in2="effect1_dropShadow_1_353" result="shape"/>
</filter>
<filter id="filter6_d_1_353" x="69.3018" y="0.150414" width="205.366" height="217.395" filterUnits="userSpaceOnUse" color-interpolation-filters="sRGB">
<feFlood flood-opacity="0" result="BackgroundImageFix"/>
<feColorMatrix in="SourceAlpha" type="matrix" values="0 0 0 0 0 0 0 0 0 0 0 0 0 0 0 0 0 0 127 0" result="hardAlpha"/>
<feOffset/>
<feGaussianBlur stdDeviation="45.7674"/>
<feColorMatrix type="matrix" values="0 0 0 0 1 0 0 0 0 0.359756 0 0 0 0 0 0 0 0 0.4 0"/>
<feBlend mode="normal" in2="BackgroundImageFix" result="effect1_dropShadow_1_353"/>
<feBlend mode="normal" in="SourceGraphic" in2="effect1_dropShadow_1_353" result="shape"/>
</filter>
<filter id="filter7_d_1_353" x="90.7551" y="0.150414" width="205.366" height="217.395" filterUnits="userSpaceOnUse" color-interpolation-filters="sRGB">
<feFlood flood-opacity="0" result="BackgroundImageFix"/>
<feColorMatrix in="SourceAlpha" type="matrix" values="0 0 0 0 0 0 0 0 0 0 0 0 0 0 0 0 0 0 127 0" result="hardAlpha"/>
<feOffset/>
<feGaussianBlur stdDeviation="45.7674"/>
<feColorMatrix type="matrix" values="0 0 0 0 1 0 0 0 0 0.359756 0 0 0 0 0 0 0 0 0.4 0"/>
<feBlend mode="normal" in2="BackgroundImageFix" result="effect1_dropShadow_1_353"/>
<feBlend mode="normal" in="SourceGraphic" in2="effect1_dropShadow_1_353" result="shape"/>
</filter>
<filter id="filter8_d_1_353" x="112.209" y="0.150414" width="205.366" height="217.395" filterUnits="userSpaceOnUse" color-interpolation-filters="sRGB">
<feFlood flood-opacity="0" result="BackgroundImageFix"/>
<feColorMatrix in="SourceAlpha" type="matrix" values="0 0 0 0 0 0 0 0 0 0 0 0 0 0 0 0 0 0 127 0" result="hardAlpha"/>
<feOffset/>
<feGaussianBlur stdDeviation="45.7674"/>
<feColorMatrix type="matrix" values="0 0 0 0 1 0 0 0 0 0.359756 0 0 0 0 0 0 0 0 0.4 0"/>
<feBlend mode="normal" in2="BackgroundImageFix" result="effect1_dropShadow_1_353"/>
<feBlend mode="normal" in="SourceGraphic" in2="effect1_dropShadow_1_353" result="shape"/>
</filter>
<filter id="filter9_d_1_353" x="133.662" y="0.150414" width="205.366" height="217.395" filterUnits="userSpaceOnUse" color-interpolation-filters="sRGB">
<feFlood flood-opacity="0" result="BackgroundImageFix"/>
<feColorMatrix in="SourceAlpha" type="matrix" values="0 0 0 0 0 0 0 0 0 0 0 0 0 0 0 0 0 0 127 0" result="hardAlpha"/>
<feOffset/>
<feGaussianBlur stdDeviation="45.7674"/>
<feColorMatrix type="matrix" values="0 0 0 0 1 0 0 0 0 0.359756 0 0 0 0 0 0 0 0 0.4 0"/>
<feBlend mode="normal" in2="BackgroundImageFix" result="effect1_dropShadow_1_353"/>
<feBlend mode="normal" in="SourceGraphic" in2="effect1_dropShadow_1_353" result="shape"/>
</filter>
<linearGradient id="paint0_linear_1_353" x1="39.3312" y1="91.6853" x2="39.3312" y2="126.011" gradientUnits="userSpaceOnUse">
<stop stop-color="#A0DBF0"/>
<stop offset="1" stop-color="#00AFED"/>
</linearGradient>
<linearGradient id="paint1_linear_1_353" x1="60.7843" y1="91.6853" x2="60.7843" y2="126.011" gradientUnits="userSpaceOnUse">
<stop stop-color="#A0DBF0"/>
<stop offset="1" stop-color="#00AFED"/>
</linearGradient>
<linearGradient id="paint2_linear_1_353" x1="82.2377" y1="91.6853" x2="82.2377" y2="126.011" gradientUnits="userSpaceOnUse">
<stop stop-color="#A0DBF0"/>
<stop offset="1" stop-color="#00AFED"/>
</linearGradient>
<linearGradient id="paint3_linear_1_353" x1="103.691" y1="91.6853" x2="103.691" y2="126.011" gradientUnits="userSpaceOnUse">
<stop stop-color="#A0DBF0"/>
<stop offset="1" stop-color="#00AFED"/>
</linearGradient>
<linearGradient id="paint4_linear_1_353" x1="129.079" y1="91.6853" x2="129.079" y2="126.011" gradientUnits="userSpaceOnUse">
<stop stop-opacity="0"/>
<stop offset="1"/>
</linearGradient>
<linearGradient id="paint5_linear_1_353" x1="150.531" y1="91.6853" x2="150.531" y2="126.011" gradientUnits="userSpaceOnUse">
<stop stop-opacity="0"/>
<stop offset="1"/>
</linearGradient>
<linearGradient id="paint6_linear_1_353" x1="171.985" y1="91.6853" x2="171.985" y2="126.011" gradientUnits="userSpaceOnUse">
<stop stop-opacity="0"/>
<stop offset="1"/>
</linearGradient>
<linearGradient id="paint7_linear_1_353" x1="193.438" y1="91.6853" x2="193.438" y2="126.011" gradientUnits="userSpaceOnUse">
<stop stop-opacity="0"/>
<stop offset="1"/>
</linearGradient>
<linearGradient id="paint8_linear_1_353" x1="214.892" y1="91.6853" x2="214.892" y2="126.011" gradientUnits="userSpaceOnUse">
<stop stop-opacity="0"/>
<stop offset="1"/>
</linearGradient>
<linearGradient id="paint9_linear_1_353" x1="236.345" y1="91.6853" x2="236.345" y2="126.011" gradientUnits="userSpaceOnUse">
<stop stop-opacity="0"/>
<stop offset="1"/>
</linearGradient>
</defs>
</svg>
