<svg width="355" height="218" viewBox="0 0 355 218" fill="none" xmlns="http://www.w3.org/2000/svg">
<g filter="url(#filter0_d_1_389)">
<path d="M318.248 95.6842C317.497 93.3043 315.289 91.6863 312.793 91.6863H309.174C305.307 91.6863 302.554 95.4429 303.719 99.1302L310.946 122.014C311.698 124.394 313.906 126.012 316.401 126.012H320.021C323.887 126.012 326.64 122.255 325.476 118.568L318.248 95.6842Z" fill="white" fill-opacity="0.07"/>
<path d="M318.248 95.6842C317.497 93.3043 315.289 91.6863 312.793 91.6863H309.174C305.307 91.6863 302.554 95.4429 303.719 99.1302L310.946 122.014C311.698 124.394 313.906 126.012 316.401 126.012H320.021C323.887 126.012 326.64 122.255 325.476 118.568L318.248 95.6842Z" fill="url(#paint0_linear_1_389)"/>
</g>
<g filter="url(#filter1_d_1_389)">
<path d="M296.795 95.684C296.043 93.304 293.835 91.686 291.34 91.686H287.72C283.853 91.686 281.1 95.4426 282.265 99.1299L289.492 122.014C290.244 124.394 292.452 126.012 294.948 126.012H298.567C302.434 126.012 305.187 122.255 304.022 118.568L296.795 95.684Z" fill="white" fill-opacity="0.07"/>
<path d="M296.795 95.684C296.043 93.304 293.835 91.686 291.34 91.686H287.72C283.853 91.686 281.1 95.4426 282.265 99.1299L289.492 122.014C290.244 124.394 292.452 126.012 294.948 126.012H298.567C302.434 126.012 305.187 122.255 304.022 118.568L296.795 95.684Z" fill="url(#paint1_linear_1_389)"/>
</g>
<g filter="url(#filter2_d_1_389)">
<path d="M275.341 95.6847C274.589 93.3048 272.381 91.6868 269.886 91.6868H266.266C262.4 91.6868 259.647 95.4434 260.811 99.1307L268.039 122.014C268.79 124.394 270.998 126.012 273.494 126.012H277.113C280.98 126.012 283.733 122.256 282.568 118.568L275.341 95.6847Z" fill="white" fill-opacity="0.07"/>
<path d="M275.341 95.6847C274.589 93.3048 272.381 91.6868 269.886 91.6868H266.266C262.4 91.6868 259.647 95.4434 260.811 99.1307L268.039 122.014C268.79 124.394 270.998 126.012 273.494 126.012H277.113C280.98 126.012 283.733 122.256 282.568 118.568L275.341 95.6847Z" fill="url(#paint2_linear_1_389)"/>
</g>
<g filter="url(#filter3_d_1_389)">
<path d="M253.888 95.684C253.136 93.304 250.929 91.686 248.433 91.686H244.814C240.947 91.686 238.194 95.4426 239.358 99.1299L246.586 122.014C247.337 124.394 249.545 126.012 252.041 126.012H255.66C259.527 126.012 262.28 122.255 261.116 118.568L253.888 95.684Z" fill="white" fill-opacity="0.07"/>
<path d="M253.888 95.684C253.136 93.304 250.929 91.686 248.433 91.686H244.814C240.947 91.686 238.194 95.4426 239.358 99.1299L246.586 122.014C247.337 124.394 249.545 126.012 252.041 126.012H255.66C259.527 126.012 262.28 122.255 261.116 118.568L253.888 95.684Z" fill="url(#paint3_linear_1_389)"/>
</g>
<g filter="url(#filter4_d_1_389)">
<path d="M232.434 95.684C231.682 93.304 229.475 91.686 226.979 91.686H223.359C219.493 91.686 216.74 95.4426 217.904 99.1299L225.132 122.014C225.883 124.394 228.091 126.012 230.587 126.012H234.206C238.073 126.012 240.826 122.255 239.661 118.568L232.434 95.684Z" fill="white" fill-opacity="0.07"/>
<path d="M232.434 95.684C231.682 93.304 229.475 91.686 226.979 91.686H223.359C219.493 91.686 216.74 95.4426 217.904 99.1299L225.132 122.014C225.883 124.394 228.091 126.012 230.587 126.012H234.206C238.073 126.012 240.826 122.255 239.661 118.568L232.434 95.684Z" fill="url(#paint4_linear_1_389)"/>
</g>
<g filter="url(#filter5_d_1_389)">
<path d="M210.98 95.684C210.229 93.304 208.021 91.686 205.525 91.686H201.906C198.039 91.686 195.286 95.4426 196.451 99.1299L203.678 122.014C204.43 124.394 206.637 126.012 209.133 126.012H212.752C216.619 126.012 219.372 122.255 218.208 118.568L210.98 95.684Z" fill="white" fill-opacity="0.07"/>
<path d="M210.98 95.684C210.229 93.304 208.021 91.686 205.525 91.686H201.906C198.039 91.686 195.286 95.4426 196.451 99.1299L203.678 122.014C204.43 124.394 206.637 126.012 209.133 126.012H212.752C216.619 126.012 219.372 122.255 218.208 118.568L210.98 95.684Z" fill="url(#paint5_linear_1_389)"/>
</g>
<g filter="url(#filter6_d_1_389)">
<path d="M189.527 95.684C188.776 93.304 186.568 91.686 184.072 91.686H180.453C176.586 91.686 173.833 95.4426 174.998 99.1299L182.225 122.014C182.977 124.394 185.185 126.012 187.68 126.012H191.3C195.166 126.012 197.919 122.255 196.755 118.568L189.527 95.684Z" fill="white" fill-opacity="0.07"/>
<path d="M189.527 95.684C188.776 93.304 186.568 91.686 184.072 91.686H180.453C176.586 91.686 173.833 95.4426 174.998 99.1299L182.225 122.014C182.977 124.394 185.185 126.012 187.68 126.012H191.3C195.166 126.012 197.919 122.255 196.755 118.568L189.527 95.684Z" fill="url(#paint6_linear_1_389)"/>
</g>
<g filter="url(#filter7_d_1_389)">
<path d="M168.074 95.684C167.322 93.304 165.114 91.686 162.618 91.686H158.999C155.132 91.686 152.379 95.4426 153.544 99.1299L160.771 122.014C161.523 124.394 163.731 126.012 166.227 126.012H169.846C173.713 126.012 176.466 122.255 175.301 118.568L168.074 95.684Z" fill="white" fill-opacity="0.07"/>
<path d="M168.074 95.684C167.322 93.304 165.114 91.686 162.618 91.686H158.999C155.132 91.686 152.379 95.4426 153.544 99.1299L160.771 122.014C161.523 124.394 163.731 126.012 166.227 126.012H169.846C173.713 126.012 176.466 122.255 175.301 118.568L168.074 95.684Z" fill="url(#paint7_linear_1_389)"/>
</g>
<g filter="url(#filter8_d_1_389)">
<path d="M146.62 95.684C145.869 93.304 143.661 91.686 141.165 91.686H137.546C133.679 91.686 130.926 95.4426 132.091 99.1299L139.318 122.014C140.07 124.394 142.278 126.012 144.773 126.012H148.393C152.259 126.012 155.013 122.255 153.848 118.568L146.62 95.684Z" fill="white" fill-opacity="0.17"/>
<path d="M146.62 95.684C145.869 93.304 143.661 91.686 141.165 91.686H137.546C133.679 91.686 130.926 95.4426 132.091 99.1299L139.318 122.014C140.07 124.394 142.278 126.012 144.773 126.012H148.393C152.259 126.012 155.013 122.255 153.848 118.568L146.62 95.684Z" fill="url(#paint8_linear_1_389)" fill-opacity="0.4"/>
</g>
<g filter="url(#filter9_d_1_389)">
<path d="M125.166 95.684C124.415 93.304 122.207 91.686 119.711 91.686H116.092C112.225 91.686 109.472 95.4426 110.637 99.1299L117.864 122.014C118.616 124.394 120.824 126.012 123.319 126.012H126.939C130.805 126.012 133.558 122.255 132.394 118.568L125.166 95.684Z" fill="white" fill-opacity="0.17"/>
<path d="M125.166 95.684C124.415 93.304 122.207 91.686 119.711 91.686H116.092C112.225 91.686 109.472 95.4426 110.637 99.1299L117.864 122.014C118.616 124.394 120.824 126.012 123.319 126.012H126.939C130.805 126.012 133.558 122.255 132.394 118.568L125.166 95.684Z" fill="url(#paint9_linear_1_389)" fill-opacity="0.4"/>
</g>
<defs>
<filter id="filter0_d_1_389" x="211.914" y="0.15139" width="205.366" height="217.395" filterUnits="userSpaceOnUse" color-interpolation-filters="sRGB">
<feFlood flood-opacity="0" result="BackgroundImageFix"/>
<feColorMatrix in="SourceAlpha" type="matrix" values="0 0 0 0 0 0 0 0 0 0 0 0 0 0 0 0 0 0 127 0" result="hardAlpha"/>
<feOffset/>
<feGaussianBlur stdDeviation="45.7674"/>
<feColorMatrix type="matrix" values="0 0 0 0 1 0 0 0 0 0.359756 0 0 0 0 0 0 0 0 0.4 0"/>
<feBlend mode="normal" in2="BackgroundImageFix" result="effect1_dropShadow_1_389"/>
<feBlend mode="normal" in="SourceGraphic" in2="effect1_dropShadow_1_389" result="shape"/>
</filter>
<filter id="filter1_d_1_389" x="190.46" y="0.151146" width="205.366" height="217.395" filterUnits="userSpaceOnUse" color-interpolation-filters="sRGB">
<feFlood flood-opacity="0" result="BackgroundImageFix"/>
<feColorMatrix in="SourceAlpha" type="matrix" values="0 0 0 0 0 0 0 0 0 0 0 0 0 0 0 0 0 0 127 0" result="hardAlpha"/>
<feOffset/>
<feGaussianBlur stdDeviation="45.7674"/>
<feColorMatrix type="matrix" values="0 0 0 0 1 0 0 0 0 0.359756 0 0 0 0 0 0 0 0 0.4 0"/>
<feBlend mode="normal" in2="BackgroundImageFix" result="effect1_dropShadow_1_389"/>
<feBlend mode="normal" in="SourceGraphic" in2="effect1_dropShadow_1_389" result="shape"/>
</filter>
<filter id="filter2_d_1_389" x="169.007" y="0.151878" width="205.366" height="217.395" filterUnits="userSpaceOnUse" color-interpolation-filters="sRGB">
<feFlood flood-opacity="0" result="BackgroundImageFix"/>
<feColorMatrix in="SourceAlpha" type="matrix" values="0 0 0 0 0 0 0 0 0 0 0 0 0 0 0 0 0 0 127 0" result="hardAlpha"/>
<feOffset/>
<feGaussianBlur stdDeviation="45.7674"/>
<feColorMatrix type="matrix" values="0 0 0 0 1 0 0 0 0 0.359756 0 0 0 0 0 0 0 0 0.4 0"/>
<feBlend mode="normal" in2="BackgroundImageFix" result="effect1_dropShadow_1_389"/>
<feBlend mode="normal" in="SourceGraphic" in2="effect1_dropShadow_1_389" result="shape"/>
</filter>
<filter id="filter3_d_1_389" x="147.554" y="0.151146" width="205.366" height="217.395" filterUnits="userSpaceOnUse" color-interpolation-filters="sRGB">
<feFlood flood-opacity="0" result="BackgroundImageFix"/>
<feColorMatrix in="SourceAlpha" type="matrix" values="0 0 0 0 0 0 0 0 0 0 0 0 0 0 0 0 0 0 127 0" result="hardAlpha"/>
<feOffset/>
<feGaussianBlur stdDeviation="45.7674"/>
<feColorMatrix type="matrix" values="0 0 0 0 1 0 0 0 0 0.359756 0 0 0 0 0 0 0 0 0.4 0"/>
<feBlend mode="normal" in2="BackgroundImageFix" result="effect1_dropShadow_1_389"/>
<feBlend mode="normal" in="SourceGraphic" in2="effect1_dropShadow_1_389" result="shape"/>
</filter>
<filter id="filter4_d_1_389" x="126.1" y="0.151146" width="205.366" height="217.395" filterUnits="userSpaceOnUse" color-interpolation-filters="sRGB">
<feFlood flood-opacity="0" result="BackgroundImageFix"/>
<feColorMatrix in="SourceAlpha" type="matrix" values="0 0 0 0 0 0 0 0 0 0 0 0 0 0 0 0 0 0 127 0" result="hardAlpha"/>
<feOffset/>
<feGaussianBlur stdDeviation="45.7674"/>
<feColorMatrix type="matrix" values="0 0 0 0 1 0 0 0 0 0.359756 0 0 0 0 0 0 0 0 0.4 0"/>
<feBlend mode="normal" in2="BackgroundImageFix" result="effect1_dropShadow_1_389"/>
<feBlend mode="normal" in="SourceGraphic" in2="effect1_dropShadow_1_389" result="shape"/>
</filter>
<filter id="filter5_d_1_389" x="104.646" y="0.151146" width="205.366" height="217.395" filterUnits="userSpaceOnUse" color-interpolation-filters="sRGB">
<feFlood flood-opacity="0" result="BackgroundImageFix"/>
<feColorMatrix in="SourceAlpha" type="matrix" values="0 0 0 0 0 0 0 0 0 0 0 0 0 0 0 0 0 0 127 0" result="hardAlpha"/>
<feOffset/>
<feGaussianBlur stdDeviation="45.7674"/>
<feColorMatrix type="matrix" values="0 0 0 0 1 0 0 0 0 0.359756 0 0 0 0 0 0 0 0 0.4 0"/>
<feBlend mode="normal" in2="BackgroundImageFix" result="effect1_dropShadow_1_389"/>
<feBlend mode="normal" in="SourceGraphic" in2="effect1_dropShadow_1_389" result="shape"/>
</filter>
<filter id="filter6_d_1_389" x="83.1931" y="0.151146" width="205.366" height="217.395" filterUnits="userSpaceOnUse" color-interpolation-filters="sRGB">
<feFlood flood-opacity="0" result="BackgroundImageFix"/>
<feColorMatrix in="SourceAlpha" type="matrix" values="0 0 0 0 0 0 0 0 0 0 0 0 0 0 0 0 0 0 127 0" result="hardAlpha"/>
<feOffset/>
<feGaussianBlur stdDeviation="45.7674"/>
<feColorMatrix type="matrix" values="0 0 0 0 1 0 0 0 0 0.359756 0 0 0 0 0 0 0 0 0.4 0"/>
<feBlend mode="normal" in2="BackgroundImageFix" result="effect1_dropShadow_1_389"/>
<feBlend mode="normal" in="SourceGraphic" in2="effect1_dropShadow_1_389" result="shape"/>
</filter>
<filter id="filter7_d_1_389" x="61.7393" y="0.151146" width="205.366" height="217.395" filterUnits="userSpaceOnUse" color-interpolation-filters="sRGB">
<feFlood flood-opacity="0" result="BackgroundImageFix"/>
<feColorMatrix in="SourceAlpha" type="matrix" values="0 0 0 0 0 0 0 0 0 0 0 0 0 0 0 0 0 0 127 0" result="hardAlpha"/>
<feOffset/>
<feGaussianBlur stdDeviation="45.7674"/>
<feColorMatrix type="matrix" values="0 0 0 0 1 0 0 0 0 0.359756 0 0 0 0 0 0 0 0 0.4 0"/>
<feBlend mode="normal" in2="BackgroundImageFix" result="effect1_dropShadow_1_389"/>
<feBlend mode="normal" in="SourceGraphic" in2="effect1_dropShadow_1_389" result="shape"/>
</filter>
<filter id="filter8_d_1_389" x="40.2862" y="0.151146" width="205.366" height="217.395" filterUnits="userSpaceOnUse" color-interpolation-filters="sRGB">
<feFlood flood-opacity="0" result="BackgroundImageFix"/>
<feColorMatrix in="SourceAlpha" type="matrix" values="0 0 0 0 0 0 0 0 0 0 0 0 0 0 0 0 0 0 127 0" result="hardAlpha"/>
<feOffset/>
<feGaussianBlur stdDeviation="45.7674"/>
<feColorMatrix type="matrix" values="0 0 0 0 1 0 0 0 0 0.359756 0 0 0 0 0 0 0 0 0.4 0"/>
<feBlend mode="normal" in2="BackgroundImageFix" result="effect1_dropShadow_1_389"/>
<feBlend mode="normal" in="SourceGraphic" in2="effect1_dropShadow_1_389" result="shape"/>
</filter>
<filter id="filter9_d_1_389" x="18.8321" y="0.151146" width="205.366" height="217.395" filterUnits="userSpaceOnUse" color-interpolation-filters="sRGB">
<feFlood flood-opacity="0" result="BackgroundImageFix"/>
<feColorMatrix in="SourceAlpha" type="matrix" values="0 0 0 0 0 0 0 0 0 0 0 0 0 0 0 0 0 0 127 0" result="hardAlpha"/>
<feOffset/>
<feGaussianBlur stdDeviation="45.7674"/>
<feColorMatrix type="matrix" values="0 0 0 0 1 0 0 0 0 0.359756 0 0 0 0 0 0 0 0 0.4 0"/>
<feBlend mode="normal" in2="BackgroundImageFix" result="effect1_dropShadow_1_389"/>
<feBlend mode="normal" in="SourceGraphic" in2="effect1_dropShadow_1_389" result="shape"/>
</filter>
<linearGradient id="paint0_linear_1_389" x1="318.53" y1="91.6863" x2="318.53" y2="126.012" gradientUnits="userSpaceOnUse">
<stop stop-color="#FFB552"/>
<stop offset="1" stop-color="#D36D33"/>
</linearGradient>
<linearGradient id="paint1_linear_1_389" x1="297.077" y1="91.686" x2="297.077" y2="126.012" gradientUnits="userSpaceOnUse">
<stop stop-color="#FFB552"/>
<stop offset="1" stop-color="#D36D33"/>
</linearGradient>
<linearGradient id="paint2_linear_1_389" x1="275.623" y1="91.6868" x2="275.623" y2="126.012" gradientUnits="userSpaceOnUse">
<stop stop-color="#FFB552"/>
<stop offset="1" stop-color="#D36D33"/>
</linearGradient>
<linearGradient id="paint3_linear_1_389" x1="254.17" y1="91.686" x2="254.17" y2="126.012" gradientUnits="userSpaceOnUse">
<stop stop-color="#FFB552"/>
<stop offset="1" stop-color="#D36D33"/>
</linearGradient>
<linearGradient id="paint4_linear_1_389" x1="232.716" y1="91.686" x2="232.716" y2="126.012" gradientUnits="userSpaceOnUse">
<stop stop-color="#FFB552"/>
<stop offset="1" stop-color="#D36D33"/>
</linearGradient>
<linearGradient id="paint5_linear_1_389" x1="211.262" y1="91.686" x2="211.262" y2="126.012" gradientUnits="userSpaceOnUse">
<stop stop-color="#FFB552"/>
<stop offset="1" stop-color="#D36D33"/>
</linearGradient>
<linearGradient id="paint6_linear_1_389" x1="189.809" y1="91.686" x2="189.809" y2="126.012" gradientUnits="userSpaceOnUse">
<stop stop-color="#FFB552"/>
<stop offset="1" stop-color="#D36D33"/>
</linearGradient>
<linearGradient id="paint7_linear_1_389" x1="168.356" y1="91.686" x2="168.356" y2="126.012" gradientUnits="userSpaceOnUse">
<stop stop-color="#FFB552"/>
<stop offset="1" stop-color="#D36D33"/>
</linearGradient>
<linearGradient id="paint8_linear_1_389" x1="142.969" y1="91.686" x2="142.969" y2="126.012" gradientUnits="userSpaceOnUse">
<stop stop-opacity="0"/>
<stop offset="1"/>
</linearGradient>
<linearGradient id="paint9_linear_1_389" x1="121.515" y1="91.686" x2="121.515" y2="126.012" gradientUnits="userSpaceOnUse">
<stop stop-opacity="0"/>
<stop offset="1"/>
</linearGradient>
</defs>
</svg>
