<svg width="429" height="664" viewBox="0 0 429 664" fill="none" xmlns="http://www.w3.org/2000/svg">
<g clip-path="url(#clip0_1_233)">
<path d="M2.84871 111.91C-59.8442 138.69 -107.947 191.295 -130.543 257.686C-138.425 281.004 -143.126 314.901 -142.1 341.283C-141.487 358.451 -137.058 388.227 -135.209 387.748C-134.798 387.641 -130.756 384.619 -126.333 380.951C-90.0066 351.027 -36.044 318.067 6.91969 299.363C14.0251 296.314 20.6168 293.399 21.6672 292.798C22.9231 292.144 23.7794 289.948 24.084 286.469C25.9379 265.701 40.7392 241.577 59.1708 229.342C93.191 206.596 138.795 213.307 165.149 244.747C172.018 253.055 172.121 253.028 176.623 252.629C227.042 247.454 275.014 248.068 322.418 254.532C324.249 254.825 323.396 251.537 317.851 238.608C301.922 200.847 274.453 165.529 243.174 142.165C191.888 103.809 133.018 87.3779 71.2576 94.0668C52.2478 96.0338 20.3173 104.421 2.84871 111.91Z" fill="#232323"/>
<path d="M78.3396 257.6C65.2857 266.467 57.7118 280.822 57.6429 296.632C57.3912 318.081 73.7249 337.095 95.8781 341.331C103.254 342.709 104.437 342.621 115.124 339.851C126.119 337.001 126.606 336.765 133.224 330.992C144.802 321.082 150.728 306.715 149.438 291.588C147.829 272.266 132.648 255.585 112.732 251.097C105.304 249.514 103.991 249.525 93.8406 251.827C85.3613 253.806 81.9742 255.123 78.3396 257.6Z" fill="#232323"/>
<path d="M21.2433 347.848C-24.7879 369.102 -69.3388 397.758 -106.214 429.798C-112.116 434.947 -116.996 439.392 -117.174 439.548C-117.327 439.807 -115.1 444.164 -112.121 449.313C-78.6848 507.649 -23.5368 549.061 42.3595 565.096C67.1804 571.163 97.2687 573.014 124.252 570.076C141.743 568.174 173.906 559.836 189.502 553.161C230.056 535.74 264.248 509.001 289.774 474.64C316.343 438.802 333.497 392.026 336.303 347.434C337.201 332.287 336.631 311.051 335.25 309.106C334.389 307.903 312.811 304.615 291.914 302.685C263.439 299.868 231.794 299.627 201.302 301.719C191.601 302.37 183.522 302.929 183.316 302.982C183.214 303.009 182.27 306.982 181.333 311.831C177.219 333.185 163.613 352.613 144.458 364.597C134.369 370.94 117.136 375.956 105.19 375.982C81.1185 376.191 58.8399 366.394 42.9018 348.484C39.3131 344.37 35.9641 341.181 35.3742 341.443C34.8604 341.576 28.501 344.541 21.2433 347.848Z" fill="#232323"/>
</g>
<defs>
<clipPath id="clip0_1_233">
<rect width="543.501" height="543.501" fill="white" transform="translate(-234.19 137.06) rotate(-14.5329)"/>
</clipPath>
</defs>
</svg>
